<?xml version="1.0" encoding="UTF-8" standalone="no"?>
<!-- Uploaded to: SVG Repo, www.svgrepo.com, Generator: SVG Repo Mixer Tools -->

<svg
   fill="#000000"
   height="800"
   width="800"
   version="1.1"
   id="Layer_1"
   viewBox="0 0 512 512"
   xml:space="preserve"
   xmlns="http://www.w3.org/2000/svg"
   xmlns:svg="http://www.w3.org/2000/svg"><defs
   id="defs5" />
<g
   id="g5">
	<g
   id="g4">
		<g
   id="g3">
			<path
   d="m 503.467,68.267 c 4.71,0 8.533,-3.823 8.533,-8.533 V 8.534 C 512,3.823 508.177,0 503.467,0 h -51.2 c -4.71,0 -8.533,3.823 -8.533,8.533 0,9.412 -7.654,17.067 -17.067,17.067 C 417.254,25.6 409.6,17.946 409.6,8.533 409.6,3.823 405.777,0 401.067,0 h -34.133 c -4.71,0 -8.533,3.823 -8.533,8.533 0,9.412 -7.654,17.067 -17.067,17.067 -9.412,0 -17.067,-7.654 -17.067,-17.067 C 324.267,3.823 320.444,0 315.734,0 H 281.6 c -4.71,0 -8.533,3.823 -8.533,8.533 0,9.412 -7.654,17.067 -17.067,17.067 -9.412,0 -17.067,-7.654 -17.067,-17.067 C 238.933,3.823 235.11,0 230.4,0 h -34.133 c -4.71,0 -8.533,3.823 -8.533,8.533 0,9.412 -7.654,17.067 -17.067,17.067 C 161.255,25.6 153.6,17.946 153.6,8.533 153.6,3.823 149.777,0 145.067,0 h -34.133 c -4.71,0 -8.533,3.823 -8.533,8.533 0,9.412 -7.654,17.067 -17.067,17.067 C 75.922,25.6 68.267,17.946 68.267,8.533 68.267,3.823 64.444,0 59.734,0 H 8.534 C 3.823,0 0,3.823 0,8.533 v 51.2 c 0,4.71 3.823,8.533 8.533,8.533 9.412,0 17.067,7.654 17.067,17.067 0,9.412 -7.654,17.067 -17.067,17.067 -4.71,0 -8.533,3.823 -8.533,8.533 v 34.133 c 0,4.71 3.823,8.533 8.533,8.533 9.412,0 17.067,7.654 17.067,17.067 0,9.412 -7.654,17.067 -17.067,17.067 -4.71,0 -8.533,3.823 -8.533,8.533 V 230.4 c 0,4.71 3.823,8.533 8.533,8.533 9.412,0 17.067,7.654 17.067,17.067 0,9.412 -7.654,17.067 -17.067,17.067 C 3.823,273.067 0,276.89 0,281.6 v 34.133 c 0,4.71 3.823,8.533 8.533,8.533 9.412,0 17.067,7.654 17.067,17.067 0,9.412 -7.654,17.067 -17.067,17.067 -4.71,0 -8.533,3.823 -8.533,8.533 v 34.133 c 0,4.71 3.823,8.533 8.533,8.533 9.412,0 17.067,7.654 17.067,17.067 0,9.413 -7.654,17.067 -17.067,17.067 -4.71,0 -8.533,3.823 -8.533,8.533 v 51.2 C 0,508.177 3.823,512 8.533,512 h 51.2 c 4.71,0 8.533,-3.823 8.533,-8.533 0,-9.412 7.654,-17.067 17.067,-17.067 9.412,0 17.067,7.654 17.067,17.067 0,4.71 3.823,8.533 8.533,8.533 h 34.133 c 4.71,0 8.533,-3.823 8.533,-8.533 0,-9.412 7.654,-17.067 17.067,-17.067 9.412,0 17.067,7.654 17.067,17.067 0,4.71 3.823,8.533 8.533,8.533 H 230.4 c 4.71,0 8.533,-3.823 8.533,-8.533 0,-9.412 7.654,-17.067 17.067,-17.067 9.412,0 17.067,7.654 17.067,17.067 0,4.71 3.823,8.533 8.533,8.533 h 34.133 c 4.71,0 8.533,-3.823 8.533,-8.533 0,-9.412 7.654,-17.067 17.067,-17.067 9.412,0 17.067,7.654 17.067,17.067 0,4.71 3.823,8.533 8.533,8.533 h 34.133 c 4.71,0 8.533,-3.823 8.533,-8.533 0,-9.412 7.654,-17.067 17.067,-17.067 9.413,0 17.067,7.654 17.067,17.067 0,4.71 3.823,8.533 8.533,8.533 h 17.067 c 4.71,0 8.533,-3.823 8.533,-8.533 0,-4.71 -3.823,-8.533 -8.533,-8.533 h -9.617 c -3.797,-14.703 -17.178,-25.6 -33.05,-25.6 -15.872,0 -29.252,10.897 -33.058,25.6 h -19.226 c -3.797,-14.703 -17.178,-25.6 -33.05,-25.6 -15.872,0 -29.252,10.897 -33.058,25.6 h -19.217 c -3.806,-14.703 -17.186,-25.6 -33.058,-25.6 -15.872,0 -29.252,10.897 -33.058,25.6 h -19.226 c -3.797,-14.703 -17.178,-25.6 -33.05,-25.6 -15.872,0 -29.252,10.897 -33.058,25.6 H 118.39 c -3.806,-14.703 -17.186,-25.6 -33.058,-25.6 -15.872,0 -29.252,10.897 -33.05,25.6 H 17.067 v -35.217 c 14.703,-3.797 25.6,-17.178 25.6,-33.05 0,-15.872 -10.897,-29.252 -25.6,-33.058 v -19.226 c 14.703,-3.797 25.6,-17.178 25.6,-33.05 0,-15.872 -10.897,-29.252 -25.6,-33.058 v -19.217 c 14.703,-3.806 25.6,-17.186 25.6,-33.058 0,-15.872 -10.897,-29.252 -25.6,-33.058 v -19.226 c 14.703,-3.797 25.6,-17.178 25.6,-33.05 0,-15.872 -10.897,-29.252 -25.6,-33.058 v -19.217 c 14.703,-3.806 25.6,-17.186 25.6,-33.058 0,-15.872 -10.897,-29.252 -25.6,-33.05 V 17.067 h 35.217 c 3.797,14.703 17.178,25.6 33.05,25.6 15.872,0 29.252,-10.897 33.058,-25.6 h 19.217 c 3.806,14.703 17.186,25.6 33.058,25.6 15.872,0 29.252,-10.897 33.05,-25.6 h 19.226 c 3.806,14.703 17.186,25.6 33.058,25.6 15.872,0 29.252,-10.897 33.058,-25.6 h 19.217 c 3.806,14.703 17.186,25.6 33.058,25.6 15.872,0 29.252,-10.897 33.05,-25.6 h 19.226 c 3.806,14.703 17.186,25.6 33.058,25.6 15.872,0 29.252,-10.897 33.05,-25.6 h 35.217 v 35.217 c -14.703,3.797 -25.6,17.178 -25.6,33.05 0,15.872 10.897,29.252 25.6,33.058 v 19.217 c -14.703,3.806 -25.6,17.186 -25.6,33.058 0,15.872 10.897,29.252 25.6,33.05 v 19.226 c -14.703,3.806 -25.6,17.186 -25.6,33.058 0,15.872 10.897,29.252 25.6,33.058 v 19.217 c -14.703,3.806 -25.6,17.186 -25.6,33.058 0,15.872 10.897,29.252 25.6,33.05 v 19.226 c -14.703,3.806 -25.6,17.186 -25.6,33.058 0,15.872 10.897,29.252 25.6,33.05 v 43.75 c 0,4.71 3.823,8.533 8.533,8.533 4.71,0 8.533,-3.823 8.533,-8.533 v -51.2 c 0,-4.71 -3.823,-8.533 -8.533,-8.533 -9.412,0 -17.067,-7.654 -17.067,-17.067 0,-9.413 7.654,-17.067 17.067,-17.067 4.71,0 8.533,-3.823 8.533,-8.533 v -34.133 c 0,-4.71 -3.823,-8.533 -8.533,-8.533 -9.412,0 -17.067,-7.654 -17.067,-17.067 0,-9.412 7.654,-17.067 17.067,-17.067 4.71,0 8.533,-3.823 8.533,-8.533 V 281.6 c 0,-4.71 -3.823,-8.533 -8.533,-8.533 -9.412,0 -17.067,-7.654 -17.067,-17.067 0,-9.412 7.654,-17.067 17.067,-17.067 4.71,0 8.533,-3.823 8.533,-8.533 v -34.133 c 0,-4.71 -3.823,-8.533 -8.533,-8.533 -9.412,0 -17.067,-7.654 -17.067,-17.067 0,-9.412 7.654,-17.067 17.067,-17.067 4.71,0 8.533,-3.823 8.533,-8.533 v -34.133 c 0,-4.71 -3.823,-8.533 -8.533,-8.533 -9.412,0 -17.067,-7.654 -17.067,-17.067 -0.001,-9.413 7.653,-17.067 17.066,-17.067 z"
   id="path1" />
			<path
   id="path2"
   d="m 123.505,269.085 c -0.0473,0.024 -0.0641,0.0355 -0.1125,0.06 -0.017,0.0959 -0.0423,0.20167 -0.005,0.16 0.0556,-0.0622 0.0743,-0.14936 0.1175,-0.22 z m -0.385,0.2025 c -0.10707,0.0535 -0.12414,0.0696 -0.23625,0.125 -0.0134,0.007 0.0265,0.0127 0.04,0.0187 0.0594,-0.0421 0.11935,-0.0841 0.17875,-0.12625 0.006,-0.006 0.0118,-0.0115 0.0175,-0.0175 z m 167.61375,19.58625 c -0.0187,0.006 -0.0363,0.0127 -0.055,0.0188 0.0376,0.0406 0.67252,0.68501 0.6625,0.66375 -0.12927,-0.27392 -0.36015,-0.48565 -0.6075,-0.6825 z" />
			<path
   d="m 76.8,68.267 c -4.71,0 -8.533,3.823 -8.533,8.533 v 358.4 c 0,4.71 3.823,8.533 8.533,8.533 h 358.4 c 4.71,0 8.533,-3.823 8.533,-8.533 V 76.8 c 0,-4.71 -3.823,-8.533 -8.533,-8.533 z m 349.867,358.4 H 85.333 V 85.333 h 341.333 v 341.334 z"
   id="path3" />
		</g>
	</g>
</g>
<g
   id="SVGRepo_iconCarrier"
   transform="matrix(16,0,0,16,63.999967,63.999947)"
   style="display:inline"><path
     fill-rule="evenodd"
     clip-rule="evenodd"
     d="M 8.00001,5 V 8.00415 C 7.50208,8.01124 7.05704,8.03041 6.67222,8.08214 6.0167,8.17028 5.38835,8.36902 4.87869,8.87868 4.36902,9.38835 4.17028,10.0167 4.08215,10.6722 3.99991,11.2839 3.99995,12.0477 4,12.9342 v 4.1316 c -5e-5,0.8865 -9e-5,1.6503 0.08215,2.262 0.08813,0.6555 0.28687,1.2839 0.79654,1.7935 0.50966,0.5097 1.13801,0.7084 1.79353,0.7966 C 7.28387,22.0001 8.0477,22.0001 8.93417,22 h 6.13173 c 0.8864,10e-5 1.6502,10e-5 2.2619,-0.0821 0.6555,-0.0882 1.2839,-0.2869 1.7935,-0.7966 0.5097,-0.5096 0.7084,-1.138 0.7966,-1.7935 0.0822,-0.6117 0.0822,-1.3755 0.0821,-2.262 v -4.1316 c 10e-5,-0.8865 10e-5,-1.6503 -0.0821,-2.262 C 19.8297,10.0167 19.631,9.38835 19.1213,8.87868 18.6117,8.36902 17.9833,8.17028 17.3278,8.08215 16.943,8.03041 16.4979,8.01124 16,8.00415 V 5 C 16,3.34315 14.6569,2 13,2 H 11 C 9.34316,2 8.00001,3.34315 8.00001,5 Z M 11,4 c -0.5523,0 -1,0.44772 -1,1 v 3 h 4 V 5 C 14,4.44772 13.5523,4 13,4 Z m 1,9 c -1.1046,0 -2,0.8954 -2,2 0,1.1046 0.8954,2 2,2 1.1046,0 2,-0.8954 2,-2 0,-1.1046 -0.8954,-2 -2,-2 z"
     fill="#000000"
     id="path1-0" /></g></svg>
